<svg xmlns="http://www.w3.org/2000/svg" viewBox="0 0 96 96">
  <defs>
    <linearGradient id="busgpt-route-gradient" x1="25" y1="19" x2="74" y2="78" gradientUnits="userSpaceOnUse">
      <stop offset="0" stop-color="#10b981" />
      <stop offset="0.5" stop-color="#2563eb" />
      <stop offset="1" stop-color="#8b5cf6" />
    </linearGradient>
    <linearGradient id="busgpt-panel-gradient" x1="18" y1="16" x2="78" y2="76" gradientUnits="userSpaceOnUse">
      <stop offset="0" stop-color="#ffffff" stop-opacity="0.16" />
      <stop offset="1" stop-color="#ffffff" stop-opacity="0.04" />
    </linearGradient>
  </defs>
  <rect x="4" y="4" width="88" height="88" rx="22" fill="#111827" />
  <path
    d="M22 26c0-5.5 4.5-10 10-10h32c5.5 0 10 4.5 10 10v28c0 5.5-4.5 10-10 10H32c-5.5 0-10-4.5-10-10V26Z"
    fill="url(#busgpt-panel-gradient)"
  />
  <path
    d="M30 71V28h20.5c12.5 0 20.5 6.4 20.5 16.2 0 5.5-3.3 10.2-8.5 12.4C69 59 73 64.4 73 71.6 73 82 64.8 88 51.5 88H30Z"
    fill="none"
    stroke="url(#busgpt-route-gradient)"
    stroke-width="8.5"
    stroke-linecap="round"
    stroke-linejoin="round"
  />
  <path d="M30 49h20.5" fill="none" stroke="#f9fafb" stroke-width="7" stroke-linecap="round" stroke-linejoin="round" />
  <circle cx="52" cy="29" r="5.5" fill="#34d399" />
  <circle cx="61" cy="49" r="5.5" fill="#60a5fa" />
  <circle cx="53" cy="70" r="5.5" fill="#a78bfa" />
  <path d="M25 76c0 6.6 5.4 12 12 12h9" fill="none" stroke="#f9fafb" stroke-width="4" stroke-linecap="round" opacity="0.82" />
</svg>
